<?xml version="1.0" standalone="no"?>
<!DOCTYPE svg PUBLIC "-//W3C//DTD SVG 20010904//EN"
 "http://www.w3.org/TR/2001/REC-SVG-20010904/DTD/svg10.dtd">
<svg version="1.0" xmlns="http://www.w3.org/2000/svg"
 width="700.000000pt" height="700.000000pt" viewBox="0 0 700.000000 700.000000"
 preserveAspectRatio="xMidYMid meet">
<metadata>
Created by potrace 1.11, written by Peter Selinger 2001-2013
</metadata>
<g transform="translate(0.000000,700.000000) scale(0.100000,-0.100000)"
fill="#000000" stroke="none">
<path d="M1020 5992 c-15 -5 -12 -69 5 -102 9 -18 26 -32 43 -36 146 -35 293
-74 310 -83 52 -28 58 -66 67 -451 3 -129 8 -332 10 -450 3 -118 8 -350 10
-515 4 -294 14 -849 20 -1215 9 -528 18 -1244 19 -1546 1 -313 0 -344 -17
-361 -9 -11 -23 -20 -30 -21 -6 0 -21 -3 -32 -5 -11 -3 -83 -19 -160 -37 -230
-51 -223 -49 -230 -79 -15 -68 -15 -81 -3 -82 7 -1 78 0 158 2 210 5 1497 4
1683 -2 176 -5 182 -2 164 58 -15 47 -36 59 -142 78 -106 20 -106 20 -215 42
-64 12 -91 22 -108 41 l-23 25 5 910 c4 654 9 913 17 918 7 4 60 -42 128 -110
64 -64 157 -152 206 -196 50 -43 121 -106 159 -139 38 -34 78 -69 90 -79 50
-43 253 -227 306 -277 9 -8 60 -55 114 -105 338 -309 895 -852 913 -890 5 -11
8 -26 7 -32 -1 -7 -2 -17 -3 -22 -2 -14 -49 -30 -156 -51 -207 -42 -284 -62
-295 -75 -18 -22 -24 -82 -8 -91 7 -5 99 -6 203 -4 257 6 1427 6 1595 0 74 -3
141 -1 149 4 17 11 8 72 -15 97 -10 11 -81 40 -158 65 -78 24 -157 56 -177 69
-45 30 -91 84 -265 315 -76 102 -141 187 -144 190 -3 3 -38 50 -79 105 -76
103 -371 486 -381 495 -3 3 -55 67 -115 143 -117 147 -336 414 -425 516 -14
17 -114 131 -135 155 -146 166 -333 362 -552 581 -128 127 -233 236 -233 242
0 14 76 116 121 163 29 30 179 168 243 223 12 10 39 35 61 55 22 20 83 75 135
122 52 47 100 90 106 95 88 81 184 168 204 185 14 12 63 56 109 98 46 42 93
85 105 95 12 10 32 28 46 40 14 13 79 70 145 127 66 58 122 107 125 110 3 3
41 36 85 74 44 37 104 89 134 114 252 215 386 301 531 337 138 34 140 35 154
63 23 44 30 98 14 104 -11 4 -1610 3 -1645 -1 -13 -1 -9 -53 6 -94 10 -26 15
-27 241 -67 63 -11 125 -25 138 -30 29 -13 42 -48 30 -80 -21 -55 -248 -352
-517 -675 -167 -201 -499 -592 -531 -625 -8 -9 -40 -45 -70 -80 -53 -62 -210
-240 -220 -250 -3 -3 -41 -45 -85 -95 -44 -49 -82 -92 -85 -95 -3 -3 -34 -38
-70 -79 -36 -41 -74 -84 -85 -96 -11 -12 -44 -49 -74 -83 -42 -49 -56 -60 -67
-51 -8 6 -12 14 -10 18 6 8 15 233 22 491 2 118 7 260 9 315 2 55 7 168 10
250 3 83 8 184 10 225 2 41 7 131 10 200 3 69 8 152 10 186 2 34 7 130 10 215
7 168 10 201 26 240 13 33 58 54 160 74 9 2 61 13 115 25 55 12 107 22 117 23
32 2 49 33 51 89 l1 53 -1047 0 c-576 0 -1052 -1 -1058 -3z"/>
</g>
</svg>
