<?xml version="1.0" encoding="UTF-8" standalone="no"?>
<svg xmlns:rdf="http://www.w3.org/1999/02/22-rdf-syntax-ns#" xmlns="http://www.w3.org/2000/svg" version="1.1" xmlns:cc="http://creativecommons.org/ns#" xmlns:dc="http://purl.org/dc/elements/1.1/" viewBox="0 0 260 260">
 <defs>
  <filter id="a" style="color-interpolation-filters:sRGB" height="1.6" width="1.6" y="-.3" x="-.3">
   <feFlood result="flood" flood-color="rgb(202,223,243)"/>
   <feComposite operator="in" result="composite1" in2="SourceGraphic" in="flood"/>
   <feGaussianBlur stdDeviation="15" result="blur" in="composite1"/>
   <feOffset result="offset" dx="0" dy="0"/>
   <feComposite operator="over" result="fbSourceGraphic" in2="offset" in="SourceGraphic"/>
   <feColorMatrix values="0 0 0 -1 0 0 0 0 -1 0 0 0 0 -1 0 0 0 0 1 0" result="fbSourceGraphicAlpha" in="fbSourceGraphic"/>
   <feFlood result="flood" flood-color="rgb(238,212,156)" in="fbSourceGraphic"/>
   <feComposite operator="out" result="composite1" in2="fbSourceGraphic" in="flood"/>
   <feGaussianBlur result="blur" stdDeviation="10" in="composite1"/>
   <feOffset result="offset" dx="0" dy="0"/>
   <feComposite operator="atop" in2="fbSourceGraphic" result="composite2"/>
  </filter>
 </defs>
 <metadata>
  <rdf:RDF>
   <cc:Work rdf:about="">
    <dc:format>image/svg+xml</dc:format>
    <dc:type rdf:resource="http://purl.org/dc/dcmitype/StillImage"/>
    <dc:title/>
   </cc:Work>
  </rdf:RDF>
 </metadata>
 <g>
  <path d="m38.35 37.3c-0.9 0-0.9 0.3-0.9 0.9 0 1.8 0.6 3.9 1.5 4.2l11.1 2.7c2.4 0.6 3 2.1 3.3 5.4 0.3 5.7 1.5 63.9 1.5 75.3 0.3 11.7 1.2 73.2 1.2 84.9 0 3.3-0.6 4.2-3 4.5l-13.5 3c-0.9 0-1.5 1.8-1.5 3.6 0 0.6 0 0.9 0.6 0.9 5.1-0.3 18.9-0.6 33.9-0.6 17.7 0 34.8 0.3 39.6 0.6 0.6 0 0.9-0.3 0.9-1.2 0-1.5-1.2-3.3-1.8-3.3l-13.8-2.7c-1.8-0.3-2.7-0.9-2.7-3.6 0-3.6 0-35.4 0.3-51.3v-14.7l0.9-0.6c4.2 4.2 6.9 7.2 9.3 9.3 18 15.3 45.3 40.8 60.3 56.1 2.4 2.4 1.8 4.2-0.9 4.8l-13.5 2.7c-1.2 0.3-1.8 1.5-1.8 3.3 0 0.6 0.3 1.2 1.2 1.2 7.8-0.3 24.9-0.6 38.7-0.6 15 0 25.8 0.3 32.4 0.6 0.6 0 0.9-0.6 0.9-1.2 0-1.2-0.6-3-2.1-3.6l-8.4-2.7c-3-0.9-4.8-2.4-7.2-5.7-24.9-33.3-49.5-65.7-76.2-91.2-2.1-1.8-3.9-3.6-6-6v-0.9c1.5-2.4 3.3-4.5 5.1-6.3 18.9-17.1 48.9-44.7 64.5-56.7 3-2.4 6-3.3 8.1-4.2l6.9-1.8c0.9-0.3 1.8-2.7 1.8-4.2 0-0.6 0-0.9-0.9-0.9h-60.3c-0.6 0-0.6 0.6-0.6 1.2 0 1.5 0.6 3.6 1.8 3.6l12 2.1c2.1 0.6 3.3 2.1 0.6 5.7-11.1 15.9-39.6 48.6-56.4 67.2-2.1 2.4-6 6.6-8.7 9.9l-0.9-0.3c0.3-4.2 0.6-9.3 0.6-13.2 0-9.3 1.5-43.8 2.7-64.2 0.3-2.7 1.2-3.6 3.3-4.2l12.6-2.7c1.2-0.3 1.5-3 1.5-4.2 0-0.6 0-0.9-0.6-0.9z" filter="url(#a)" fill="#a98b49"/>
 </g>
</svg>
