<?xml version="1.0" encoding="UTF-8" standalone="no"?>
<!-- Created with Inkscape (http://www.inkscape.org/) -->

<svg xmlns:dc="http://purl.org/dc/elements/1.1/" xmlns:cc="http://creativecommons.org/ns#" xmlns:rdf="http://www.w3.org/1999/02/22-rdf-syntax-ns#" xmlns:svg="http://www.w3.org/2000/svg" xmlns="http://www.w3.org/2000/svg" xmlns:sodipodi="http://sodipodi.sourceforge.net/DTD/sodipodi-0.dtd" xmlns:inkscape="http://www.inkscape.org/namespaces/inkscape" width="260" height="260" viewBox="0 0 260 260" version="1.1" id="svg8" inkscape:version="0.91+devel r" sodipodi:docname="favicon.svg" inkscape:export-filename="/home/dasprid/dev/suitwalk-reg/assets/favicon.png" inkscape:export-xdpi="96" inkscape:export-ydpi="96">
    <defs id="defs2">
        <filter style="color-interpolation-filters:sRGB;" inkscape:label="Drop Shadow" id="filter4469" x="-0.29999999999999999" y="-0.29999999999999999" width="1.6000000000000001" height="1.6000000000000001">
            <feFlood flood-opacity="1" flood-color="rgb(202,223,243)" result="flood" id="feFlood4459" />
            <feComposite in="flood" in2="SourceGraphic" operator="in" result="composite1" id="feComposite4461" />
            <feGaussianBlur in="composite1" stdDeviation="15" result="blur" id="feGaussianBlur4463" />
            <feOffset dx="0" dy="0" result="offset" id="feOffset4465" />
            <feComposite in="SourceGraphic" in2="offset" operator="over" result="fbSourceGraphic" id="feComposite4467" />
            <feColorMatrix result="fbSourceGraphicAlpha" in="fbSourceGraphic" values="0 0 0 -1 0 0 0 0 -1 0 0 0 0 -1 0 0 0 0 1 0" id="feColorMatrix4490" />
            <feFlood id="feFlood4492" flood-opacity="1" flood-color="rgb(238,212,156)" result="flood" in="fbSourceGraphic" />
            <feComposite in2="fbSourceGraphic" id="feComposite4494" in="flood" operator="out" result="composite1" />
            <feGaussianBlur id="feGaussianBlur4496" in="composite1" stdDeviation="10" result="blur" />
            <feOffset id="feOffset4498" dx="0" dy="0" result="offset" />
            <feComposite in2="fbSourceGraphic" id="feComposite4500" operator="atop" result="composite2" />
        </filter>
    </defs>
    <sodipodi:namedview id="base" pagecolor="#ffffff" bordercolor="#666666" borderopacity="1.0" inkscape:pageopacity="0.0" inkscape:pageshadow="2" inkscape:zoom="0.98994953" inkscape:cx="-132.2522" inkscape:cy="-98.056153" inkscape:document-units="px" inkscape:current-layer="layer2" showgrid="false" />
    <metadata id="metadata5">
        <rdf:RDF>
            <cc:Work rdf:about="">
                <dc:format>image/svg+xml</dc:format>
                <dc:type rdf:resource="http://purl.org/dc/dcmitype/StillImage" />
                <dc:title />
            </cc:Work>
        </rdf:RDF>
    </metadata>
    <g inkscape:label="Background" inkscape:groupmode="layer" id="layer1" transform="translate(0,-820)" />
    <g inkscape:groupmode="layer" id="layer2" inkscape:label="K">
        <path inkscape:connector-curvature="0" id="path4245" style="font-style:normal;font-variant:normal;font-weight:bold;font-stretch:normal;font-size:300px;line-height:25px;font-family:'Nueva Std';-inkscape-font-specification:'Nueva Std Bold';letter-spacing:0px;word-spacing:0px;fill:#a98b49;fill-opacity:1;stroke:none;stroke-width:1px;stroke-linecap:butt;stroke-linejoin:miter;stroke-opacity:1;filter:url(#filter4469)" d="m 38.350001,37.300006 c -0.9,0 -0.9,0.3 -0.9,0.9 0,1.8 0.6,3.9 1.5,4.2 l 11.1,2.7 c 2.4,0.6 3,2.1 3.3,5.4 0.3,5.7 1.5,63.900004 1.5,75.300004 0.3,11.7 1.2,73.2 1.2,84.9 0,3.3 -0.6,4.2 -3,4.5 l -13.5,3 c -0.9,0 -1.5,1.8 -1.5,3.6 0,0.6 0,0.9 0.6,0.9 5.1,-0.3 18.9,-0.6 33.9,-0.6 17.7,0 34.799999,0.3 39.599999,0.6 0.6,0 0.9,-0.3 0.9,-1.2 0,-1.5 -1.2,-3.3 -1.8,-3.3 l -13.799999,-2.7 c -1.8,-0.3 -2.7,-0.9 -2.7,-3.6 0,-3.6 0,-35.4 0.3,-51.3 v -14.7 l 0.9,-0.6 c 4.199999,4.2 6.899999,7.2 9.299999,9.3 18,15.3 45.3,40.8 60.3,56.1 2.4,2.4 1.8,4.2 -0.9,4.8 l -13.5,2.7 c -1.2,0.3 -1.8,1.5 -1.8,3.3 0,0.6 0.3,1.2 1.2,1.2 7.8,-0.3 24.9,-0.6 38.7,-0.6 15,0 25.8,0.3 32.4,0.6 0.6,0 0.9,-0.6 0.9,-1.2 0,-1.2 -0.6,-3 -2.1,-3.6 l -8.4,-2.7 c -3,-0.9 -4.8,-2.4 -7.2,-5.7 -24.9,-33.3 -49.5,-65.7 -76.2,-91.2 -2.1,-1.8 -3.9,-3.6 -6,-6 v -0.9 c 1.5,-2.4 3.3,-4.5 5.1,-6.3 18.9,-17.100004 48.9,-44.700004 64.5,-56.700004 3,-2.4 6,-3.3 8.1,-4.2 l 6.9,-1.8 c 0.9,-0.3 1.8,-2.7 1.8,-4.2 0,-0.6 0,-0.9 -0.9,-0.9 h -60.3 c -0.6,0 -0.6,0.6 -0.6,1.2 0,1.5 0.6,3.6 1.8,3.6 l 12,2.1 c 2.1,0.6 3.3,2.1 0.6,5.7 -11.1,15.9 -39.6,48.6 -56.4,67.200004 -2.1,2.4 -5.999999,6.6 -8.699999,9.9 l -0.9,-0.3 c 0.3,-4.2 0.6,-9.3 0.6,-13.2 0,-9.3 1.5,-43.800004 2.7,-64.200004 0.3,-2.7 1.199999,-3.6 3.299999,-4.2 l 12.6,-2.7 c 1.2,-0.3 1.5,-3 1.5,-4.2 0,-0.6 0,-0.9 -0.6,-0.9 z" />
    </g>
</svg>
